<svg width="764" height="764" viewBox="0 0 764 764" fill="none" xmlns="http://www.w3.org/2000/svg">
<path d="M50 150C50 94.7715 94.7715 50 150 50H614C669.228 50 714 94.7715 714 150V614C714 669.228 669.228 714 614 714H150C94.7715 714 50 669.228 50 614V150Z" fill="#246CF0"/>
<path d="M735.304 404.784L547.738 216.992L214.028 550.695L423.033 754.541L609 750.5L718 685.5L735.304 404.784Z" fill="#003AA3" fill-opacity="0.5"/>
<path fill-rule="evenodd" clip-rule="evenodd" d="M150 0H614C696.843 0 764 67.1573 764 150V614C764 696.843 696.843 764 614 764H150C67.1573 764 0 696.843 0 614V150C0 67.1573 67.1573 0 150 0ZM150 50C94.7715 50 50 94.7715 50 150V614C50 669.228 94.7715 714 150 714H614C669.228 714 714 669.228 714 614V150C714 94.7715 669.228 50 614 50H150Z" fill="#003AA3"/>
<path d="M618 385C618 515.339 512.339 621 382 621C251.661 621 146 515.339 146 385C146 254.661 251.661 149 382 149C512.339 149 618 254.661 618 385Z" fill="#FFFEFD"/>
<path fill-rule="evenodd" clip-rule="evenodd" d="M382 596C498.532 596 593 501.532 593 385C593 268.468 498.532 174 382 174C265.468 174 171 268.468 171 385C171 501.532 265.468 596 382 596ZM382 621C512.339 621 618 515.339 618 385C618 254.661 512.339 149 382 149C251.661 149 146 254.661 146 385C146 515.339 251.661 621 382 621Z" fill="#EFAD23"/>
<path d="M363.736 353.141C335.346 325.621 307.036 297.811 279.506 269.441C275.119 264.914 272.303 261.278 271.056 258.531C257.556 228.771 318.066 207.861 337.156 203.591C343.216 202.238 348.009 201.748 351.536 202.121C360.616 203.071 369.926 208.561 373.346 217.361C374.253 219.694 374.709 223.141 374.716 227.701C374.716 236.394 374.729 245.091 374.756 253.791C374.766 256.391 375.216 261.131 374.806 264.871C374.773 265.198 374.823 265.521 374.956 265.841C376.366 269.231 375.796 275.671 375.686 280.561C375.679 280.874 375.593 281.184 375.426 281.491C375.146 281.991 375.003 282.368 374.996 282.621C374.736 302.941 374.743 323.258 375.016 343.571C375.086 348.531 374.356 353.751 369.116 354.751C367.043 355.144 365.249 354.608 363.736 353.141ZM345.386 248.891C345.126 255.351 346.876 261.208 350.636 266.461C350.739 266.607 350.874 266.721 351.022 266.784C351.17 266.847 351.323 266.857 351.456 266.811C355.136 265.561 347.596 250.221 346.426 248.531C345.779 247.591 345.433 247.711 345.386 248.891ZM311.936 266.601C315.136 276.011 323.156 284.261 331.686 289.681C331.788 289.747 331.903 289.785 332.011 289.789C332.119 289.792 332.216 289.761 332.286 289.701C332.466 289.541 332.556 289.021 332.476 288.791C329.216 279.191 322.616 268.901 313.446 264.001C313.316 263.93 313.167 263.905 313.024 263.928C312.88 263.952 312.75 264.023 312.656 264.131C311.909 264.984 311.669 265.808 311.936 266.601ZM356.446 313.871C353.986 309.018 351.029 304.468 347.576 300.221C346.589 299.008 346.469 299.351 347.216 301.251C349.123 306.091 351.463 310.711 354.236 315.111C355.296 316.791 356.996 317.571 358.406 319.041C358.445 319.08 358.493 319.109 358.545 319.126C358.597 319.143 358.652 319.147 358.704 319.139C358.757 319.13 358.806 319.108 358.846 319.075C358.887 319.042 358.918 319 358.936 318.951C361.086 313.271 358.716 303.081 356.996 297.361C356.536 295.821 356.203 295.851 355.996 297.451C355.316 302.551 355.663 307.608 357.036 312.621C357.123 312.941 357.066 313.354 356.866 313.861C356.739 314.174 356.599 314.178 356.446 313.871Z" fill="#EFAD23"/>
<path d="M388.426 291.651C389.316 275.951 389.106 267.711 388.436 255.621C389.296 251.948 389.239 248.281 388.266 244.621C388.086 235.801 388.152 228.548 388.466 222.861C388.996 213.041 397.576 205.461 406.666 203.271C415.886 201.061 426.316 203.251 435.786 206.481C452.266 212.091 468.586 219.991 482.166 230.411C493.506 239.101 498.766 253.071 487.606 264.511C463.846 288.871 435.349 316.788 402.116 348.261C400.709 349.594 398.462 351.321 395.376 353.441C395.097 353.635 394.776 353.73 394.466 353.711C389.486 353.381 388.476 349.851 388.506 345.301C388.599 327.408 388.572 309.524 388.426 291.651ZM423.016 273.121C425.696 270.721 427.169 267.721 427.436 264.121C429.182 260.488 430.126 256.654 430.266 252.621C430.306 251.648 429.952 251.558 429.206 252.351C423.246 258.671 419.126 268.801 417.966 276.121C417.016 282.111 422.396 274.121 423.016 273.121ZM449.176 264.361C441.466 267.361 433.256 282.361 430.106 289.831C429.079 292.264 429.716 292.838 432.016 291.551C433.186 290.911 435.736 287.431 436.846 286.181C440.766 281.761 449.496 270.521 449.506 264.591C449.505 264.551 449.494 264.511 449.475 264.476C449.457 264.44 449.43 264.41 449.397 264.387C449.365 264.365 449.328 264.351 449.289 264.346C449.251 264.341 449.212 264.347 449.176 264.361ZM409.476 306.821C409.286 305.381 408.016 292.261 407.566 292.181C407.517 292.175 407.467 292.186 407.419 292.214C407.37 292.242 407.323 292.286 407.281 292.343C407.24 292.401 407.204 292.471 407.175 292.549C407.147 292.628 407.127 292.714 407.116 292.801C406.162 300.394 405.509 308.014 405.156 315.661C405.096 317.061 405.666 320.511 407.796 317.701C411.196 313.231 421.706 297.591 421.306 291.571C421.279 291.231 421.129 291.154 420.856 291.341C416.556 294.341 412.906 302.411 409.816 306.901C409.629 307.174 409.516 307.148 409.476 306.821Z" fill="#EFAD23"/>
<path d="M208.666 370.931C184.106 351.681 211.676 299.541 225.966 281.381C234.726 270.241 249.406 264.721 261.946 273.151C264.566 274.911 268.656 278.851 271.646 281.801C299.579 309.341 327.386 337.011 355.066 364.811C356.846 366.604 357.869 368.258 358.136 369.771C358.649 372.651 357.269 374.601 353.996 375.621C352.422 376.108 350.816 376.351 349.176 376.351C310.562 376.391 271.952 376.388 233.346 376.341C222.606 376.331 215.906 376.611 208.666 370.931ZM287.626 317.891C281.526 311.761 262.876 306.911 254.436 307.151C254.276 307.156 254.125 307.208 254.008 307.297C253.891 307.387 253.816 307.509 253.796 307.641C253.456 309.981 280.086 317.691 283.166 318.401C284.726 318.761 285.996 318.611 287.486 318.321C287.799 318.261 287.846 318.118 287.626 317.891ZM290.626 335.861C296.686 338.128 302.889 339.931 309.236 341.271C309.422 341.31 309.605 341.31 309.762 341.27C309.919 341.231 310.042 341.155 310.116 341.051C313.176 336.681 290.926 334.481 289.956 334.391C289.62 334.359 289.298 334.437 289.046 334.611C287.256 335.861 289.936 335.601 290.626 335.861ZM290.106 348.011C301.252 355.578 313.609 359.268 327.176 359.081C329.022 359.054 329.109 358.654 327.436 357.881C315.662 352.448 303.329 348.921 290.436 347.301C289.309 347.161 289.199 347.398 290.106 348.011Z" fill="#EFAD23"/>
<path d="M409.036 361.731C437.506 333.381 465.966 304.921 494.856 277.011C502.163 269.944 510.699 267.734 520.466 270.381C544.126 276.791 568.356 331.501 563.726 354.541C561.876 363.781 555.926 371.431 546.996 374.551C544.129 375.558 539.523 376.084 533.176 376.131C494.523 376.404 455.873 376.488 417.226 376.381C415.373 376.374 413.529 376.251 411.696 376.011C401.416 374.691 403.836 366.901 409.036 361.731ZM465.086 332.741C461.356 336.971 467.156 335.241 468.506 334.681C478.033 330.701 485.543 324.328 491.036 315.561C491.127 315.418 491.178 315.259 491.184 315.105C491.189 314.951 491.148 314.81 491.066 314.701C489.726 312.931 481.096 318.501 479.646 319.541C474.293 323.388 469.439 327.788 465.086 332.741ZM502.086 348.331C495.419 347.858 489.186 349.094 483.386 352.041C482.573 352.454 482.169 352.974 482.176 353.601C482.176 353.667 482.19 353.733 482.218 353.793C482.245 353.854 482.286 353.909 482.338 353.955C482.389 354.001 482.45 354.036 482.517 354.06C482.583 354.083 482.655 354.094 482.726 354.091C489.613 353.904 496.106 352.231 502.206 349.071C503.033 348.644 502.993 348.398 502.086 348.331ZM441.416 357.981C442.646 356.911 448.146 353.371 448.056 352.041C448.051 351.98 448.033 351.921 448.002 351.868C447.972 351.815 447.93 351.771 447.88 351.738C447.83 351.704 447.774 351.684 447.716 351.678C447.658 351.671 447.6 351.679 447.546 351.701C441.839 354.074 436.786 357.444 432.386 361.811C432.179 362.018 432.206 362.121 432.466 362.121C444.636 362.111 456.226 361.941 468.126 359.071C469.116 358.831 472.276 357.441 468.596 357.211C459.523 356.638 450.503 356.981 441.536 358.241C441.203 358.288 441.163 358.201 441.416 357.981Z" fill="#EFAD23"/>
<path d="M279.786 475.931C271.926 483.651 263.516 493.791 254.636 497.261C240.896 502.641 228.766 493.951 220.966 482.871C207.759 464.098 199.846 443.684 197.226 421.631C196.586 416.244 197.306 411.041 199.386 406.021C204.776 393.011 215.366 389.401 228.466 389.391C267.973 389.371 307.476 389.421 346.976 389.541C349.346 389.551 351.806 389.351 353.936 390.321C360.176 393.161 357.696 398.211 354.036 401.961C335.823 420.608 311.073 445.264 279.786 475.931ZM237.696 408.091C250.036 408.231 260.736 408.101 272.826 405.111C278.146 403.791 267.236 401.391 266.976 401.381C256.689 400.968 246.866 402.908 237.506 407.201C236.246 407.781 236.309 408.078 237.696 408.091ZM311.506 413.221L288.116 430.291C287.972 430.394 287.862 430.53 287.806 430.674C287.751 430.817 287.754 430.959 287.816 431.071C287.969 431.351 288.273 431.384 288.726 431.171C301.059 425.391 312.126 417.774 321.926 408.321C323.146 407.148 322.906 406.618 321.206 406.731C312.239 407.304 303.496 408.988 294.976 411.781C292.746 412.501 289.526 413.041 286.936 414.741C286.649 414.928 286.679 415.018 287.026 415.011C294.746 414.804 301.726 414.414 307.966 413.841C308.986 413.748 310.143 413.498 311.436 413.091C311.729 412.998 311.753 413.041 311.506 413.221ZM265.436 443.361C258.636 440.981 245.436 450.341 240.246 454.881C239.273 455.728 239.426 456.058 240.706 455.871C242.656 455.581 244.956 455.571 246.926 454.791C253.719 452.084 259.939 448.598 265.586 444.331C266.139 443.911 266.089 443.588 265.436 443.361Z" fill="#EFAD23"/>
<path d="M546.506 389.891C560.232 395.431 567.079 405.684 567.046 420.651C566.996 442.961 544.836 493.861 519.376 498.171C508.836 499.951 502.326 495.291 494.676 487.671C465.582 458.744 436.752 429.561 408.186 400.121C409.046 398.301 408.066 397.001 408.536 395.371C409.326 392.641 411.426 392.051 414.186 392.121C436.539 392.754 458.882 392.578 481.216 391.591C483.096 391.511 485.376 392.061 487.326 392.071C517.839 392.184 536.306 392.308 542.726 392.441C544.612 392.474 545.872 391.624 546.506 389.891ZM446.726 406.661C451.132 408.888 455.799 409.861 460.726 409.581C464.256 410.001 467.586 411.751 471.026 410.561C471.11 410.533 471.189 410.493 471.258 410.442C471.327 410.391 471.385 410.33 471.429 410.264C471.473 410.198 471.501 410.128 471.513 410.057C471.524 409.986 471.518 409.916 471.496 409.851L471.236 409.121C471.172 408.939 471.095 408.777 471.013 408.651C470.931 408.525 470.846 408.439 470.766 408.401C461.899 404.234 452.576 402.418 442.796 402.951C440.182 403.091 439.966 403.851 442.146 405.231C442.806 405.644 444.332 406.121 446.726 406.661ZM512.686 413.351C514.976 412.971 518.446 412.501 521.336 411.631C522.122 411.398 522.166 411.071 521.466 410.651C512.416 405.211 496.876 404.301 486.546 404.531C483.952 404.584 483.082 405.441 483.936 407.101C484.084 407.377 484.345 407.588 484.666 407.691C494.706 410.831 501.626 415.221 512.686 413.351ZM479.546 429.141C467.936 422.071 456.916 414.521 445.166 410.271C444.459 410.018 444.359 410.171 444.866 410.731C450.326 416.741 456.126 419.891 464.376 424.311C466.936 425.691 476.966 431.431 479.386 430.621C480.499 430.248 480.552 429.754 479.546 429.141ZM508.666 437.181C515.212 440.334 521.986 441.718 528.986 441.331C529.332 441.311 529.372 441.194 529.106 440.981C524.346 437.121 515.126 433.161 508.236 434.061C508.073 434.083 507.92 434.141 507.789 434.232C507.658 434.323 507.554 434.443 507.486 434.581C506.959 435.681 507.352 436.548 508.666 437.181Z" fill="#EFAD23"/>
<path d="M335.036 566.831C310.906 562.221 259.316 541.921 269.726 508.171C270.736 504.901 274.696 501.011 277.706 497.981C305.612 469.921 333.692 442.041 361.946 414.341C372.486 404.021 374.766 413.031 374.736 422.561C374.616 462.168 374.699 501.771 374.986 541.371C375.096 555.221 364.786 565.771 351.466 567.841C347.392 568.474 341.916 568.138 335.036 566.831ZM352.516 448.921C348.846 451.951 336.666 465.751 337.586 469.221C337.6 469.274 337.629 469.322 337.668 469.361C337.708 469.399 337.757 469.427 337.811 469.442C337.866 469.457 337.924 469.459 337.981 469.446C338.038 469.434 338.091 469.408 338.136 469.371C343.596 465.021 352.746 455.941 352.896 449.111C352.909 448.764 352.782 448.701 352.516 448.921ZM359.276 452.111C355.536 458.861 350.966 470.711 354.496 478.131C354.929 479.044 355.369 479.048 355.816 478.141C358.982 471.621 360.599 464.601 360.666 457.081C360.676 455.671 360.906 453.701 360.366 452.191C360.066 451.364 359.702 451.338 359.276 452.111ZM310.436 504.931C317.116 497.831 322.826 488.961 324.936 479.361C325.376 477.391 324.036 477.491 323.106 478.581C316.319 486.621 311.016 495.544 307.196 505.351C306.946 505.981 306.526 507.961 307.706 507.561C307.821 507.524 307.938 507.444 308.047 507.328C308.156 507.212 308.255 507.063 308.336 506.891C308.846 505.851 309.876 505.521 310.436 504.931ZM338.916 491.191C334.646 498.831 331.126 511.041 334.356 519.951C335.726 523.741 337.286 517.191 337.626 516.571C338.279 515.351 338.686 514.318 338.846 513.471C340.219 506.251 340.809 498.964 340.616 491.611C340.556 489.418 339.989 489.278 338.916 491.191Z" fill="#EFAD23"/>
<path d="M395.206 559.631C390.512 554.998 388.169 549.304 388.176 542.551C388.242 501.764 388.356 460.974 388.516 420.181C388.529 416.788 388.886 414.304 389.586 412.731C392.576 406.051 398.356 411.641 401.576 414.851C431.022 444.211 460.336 473.711 489.516 503.351C490.689 504.538 491.606 505.898 492.266 507.431C499.256 523.571 490.836 536.261 477.746 545.111C459.126 557.701 415.226 579.391 395.206 559.631ZM410.226 454.261C413.746 460.271 419.106 467.671 424.266 473.581C425.279 474.748 425.609 474.504 425.256 472.851C424.226 468.061 411.716 443.361 406.826 443.101C404.466 442.981 409.526 453.051 410.226 454.261ZM404.124 469.982C404.255 469.959 404.331 469.63 404.347 469.014C404.364 468.397 404.322 467.505 404.222 466.388C404.122 465.272 403.967 463.953 403.767 462.506C403.566 461.059 403.322 459.514 403.051 457.958C402.779 456.401 402.484 454.865 402.184 453.435C401.883 452.006 401.581 450.713 401.297 449.628C401.012 448.544 400.75 447.69 400.526 447.116C400.301 446.541 400.118 446.257 399.988 446.28C399.857 446.303 399.781 446.632 399.764 447.249C399.747 447.865 399.79 448.757 399.89 449.874C399.989 450.99 400.144 452.31 400.345 453.756C400.546 455.203 400.789 456.748 401.061 458.305C401.332 459.861 401.627 461.398 401.928 462.827C402.229 464.256 402.53 465.549 402.815 466.634C403.099 467.718 403.361 468.572 403.586 469.146C403.811 469.721 403.993 470.005 404.124 469.982ZM438.036 489.321C443.096 496.281 449.036 505.261 456.026 510.331C456.986 511.024 457.209 510.801 456.696 509.661C452.662 500.728 447.006 492.954 439.726 486.341C437.799 484.588 436.589 483.644 436.096 483.511C433.476 482.791 437.716 488.871 438.036 489.321ZM431.156 522.301C429.546 511.581 424.756 501.631 420.746 491.641C420.426 490.841 420.176 490.861 419.996 491.701C417.806 501.901 423.976 515.031 430.456 522.631C431.062 523.338 431.296 523.228 431.156 522.301Z" fill="#EFAD23"/>
</svg>
