<svg width="200" height="118" viewBox="0 0 200 118" fill="none" xmlns="http://www.w3.org/2000/svg">
<path d="M120.907 35.2554C120.907 47.0269 111.365 56.5696 99.5933 56.5696C87.8218 56.5696 78.2791 47.0269 78.2791 35.2554C78.2791 23.4839 87.8218 13.9413 99.5933 13.9413C111.365 13.9413 120.907 23.4839 120.907 35.2554Z" fill="#FFFEFD"/>
<path fill-rule="evenodd" clip-rule="evenodd" d="M99.5933 54.3117C110.118 54.3117 118.65 45.7799 118.65 35.2554C118.65 24.7309 110.118 16.1991 99.5933 16.1991C89.0688 16.1991 80.537 24.7309 80.537 35.2554C80.537 45.7799 89.0688 54.3117 99.5933 54.3117ZM99.5933 56.5696C111.365 56.5696 120.907 47.0269 120.907 35.2554C120.907 23.4839 111.365 13.9413 99.5933 13.9413C87.8218 13.9413 78.2791 23.4839 78.2791 35.2554C78.2791 47.0269 87.8218 56.5696 99.5933 56.5696Z" fill="#EFAD23"/>
<path d="M97.9438 32.3781C95.3797 29.8927 92.823 27.3811 90.3366 24.8188C89.9404 24.41 89.686 24.0816 89.5734 23.8335C88.3542 21.1458 93.8191 19.2573 95.5432 18.8717C96.0905 18.7494 96.5234 18.7052 96.8419 18.7389C97.662 18.8247 98.5028 19.3205 98.8117 20.1153C98.8936 20.326 98.9348 20.6373 98.9354 21.0491C98.9354 21.8343 98.9366 22.6197 98.939 23.4054C98.9399 23.6402 98.9806 24.0683 98.9435 24.4061C98.9405 24.4356 98.945 24.4648 98.9571 24.4937C99.0844 24.7999 99.0329 25.3815 99.023 25.8231C99.0224 25.8514 99.0146 25.8794 98.9995 25.9071C98.9742 25.9523 98.9613 25.9863 98.9607 26.0092C98.9372 27.8444 98.9378 29.6793 98.9625 31.5138C98.9688 31.9618 98.9029 32.4332 98.4297 32.5235C98.2424 32.5591 98.0804 32.5106 97.9438 32.3781ZM96.2865 22.9629C96.263 23.5463 96.4211 24.0753 96.7606 24.5497C96.7699 24.5629 96.7822 24.5732 96.7955 24.5789C96.8089 24.5846 96.8227 24.5855 96.8347 24.5813C97.1671 24.4684 96.4861 23.083 96.3804 22.9304C96.322 22.8455 96.2907 22.8563 96.2865 22.9629ZM93.2655 24.5624C93.5545 25.4122 94.2788 26.1573 95.0492 26.6468C95.0584 26.6528 95.0687 26.6562 95.0785 26.6565C95.0883 26.6568 95.097 26.6541 95.1034 26.6486C95.1196 26.6342 95.1278 26.5872 95.1205 26.5664C94.8261 25.6994 94.23 24.7701 93.4019 24.3275C93.3902 24.3211 93.3767 24.3188 93.3637 24.321C93.3508 24.3231 93.339 24.3296 93.3305 24.3393C93.2631 24.4163 93.2414 24.4907 93.2655 24.5624ZM97.2854 28.8315C97.0632 28.3932 96.7962 27.9822 96.4843 27.5987C96.3952 27.4891 96.3843 27.5201 96.4518 27.6917C96.624 28.1289 96.8353 28.5461 97.0858 28.9435C97.1815 29.0952 97.335 29.1657 97.4624 29.2984C97.4659 29.3019 97.4702 29.3046 97.4749 29.3061C97.4796 29.3077 97.4846 29.308 97.4893 29.3072C97.4941 29.3064 97.4985 29.3044 97.5022 29.3015C97.5058 29.2985 97.5086 29.2947 97.5103 29.2903C97.7044 28.7773 97.4904 27.857 97.335 27.3404C97.2935 27.2013 97.2634 27.204 97.2447 27.3485C97.1833 27.8092 97.2146 28.2658 97.3387 28.7186C97.3465 28.7475 97.3414 28.7848 97.3233 28.8306C97.3119 28.8589 97.2992 28.8592 97.2854 28.8315Z" fill="#EFAD23"/>
<path d="M100.174 26.8247C100.254 25.4068 100.235 24.6626 100.175 23.5707C100.252 23.2389 100.247 22.9078 100.159 22.5772C100.143 21.7807 100.149 21.1256 100.177 20.612C100.225 19.7251 101 19.0405 101.821 18.8428C102.654 18.6432 103.596 18.841 104.451 19.1327C105.939 19.6393 107.413 20.3528 108.64 21.2939C109.664 22.0787 110.139 23.3404 109.131 24.3736C106.985 26.5736 104.411 29.0949 101.41 31.9374C101.283 32.0578 101.08 32.2138 100.801 32.4052C100.776 32.4228 100.747 32.4314 100.719 32.4296C100.269 32.3998 100.178 32.081 100.181 31.6701C100.189 30.0541 100.187 28.4389 100.174 26.8247ZM103.298 25.1512C103.54 24.9344 103.673 24.6635 103.697 24.3384C103.855 24.0102 103.94 23.664 103.952 23.2998C103.956 23.2119 103.924 23.2037 103.857 23.2754C103.318 23.8462 102.946 24.761 102.841 25.4221C102.756 25.9631 103.242 25.2415 103.298 25.1512ZM105.66 24.36C104.964 24.631 104.222 25.9857 103.938 26.6604C103.845 26.8801 103.903 26.9319 104.11 26.8157C104.216 26.7579 104.446 26.4436 104.547 26.3307C104.901 25.9315 105.689 24.9164 105.69 24.3808C105.69 24.3772 105.689 24.3736 105.687 24.3704C105.686 24.3672 105.683 24.3645 105.68 24.3624C105.677 24.3604 105.674 24.3591 105.67 24.3587C105.667 24.3583 105.663 24.3587 105.66 24.36ZM102.075 28.1948C102.058 28.0647 101.943 26.8798 101.902 26.8726C101.898 26.872 101.893 26.873 101.889 26.8755C101.885 26.8781 101.88 26.882 101.877 26.8872C101.873 26.8924 101.87 26.8988 101.867 26.9059C101.864 26.913 101.863 26.9207 101.862 26.9286C101.775 27.6144 101.716 28.3026 101.685 28.9932C101.679 29.1196 101.731 29.4312 101.923 29.1774C102.23 28.7737 103.179 27.3612 103.143 26.8175C103.141 26.7868 103.127 26.7799 103.102 26.7967C102.714 27.0677 102.384 27.7965 102.105 28.202C102.089 28.2267 102.078 28.2243 102.075 28.1948Z" fill="#EFAD23"/>
<path d="M83.9387 33.9849C81.7206 32.2463 84.2106 27.5373 85.5012 25.8972C86.2923 24.8911 87.6181 24.3926 88.7507 25.1539C88.9873 25.3129 89.3567 25.6687 89.6267 25.9352C92.1495 28.4224 94.6608 30.9214 97.1607 33.4321C97.3215 33.5941 97.4139 33.7434 97.438 33.8801C97.4843 34.1402 97.3597 34.3163 97.0641 34.4084C96.922 34.4524 96.7769 34.4744 96.6288 34.4744C93.1414 34.478 89.6544 34.4777 86.1677 34.4734C85.1977 34.4725 84.5926 34.4978 83.9387 33.9849ZM91.0699 29.1946C90.519 28.641 88.8347 28.2029 88.0724 28.2246C88.058 28.2251 88.0443 28.2297 88.0338 28.2378C88.0232 28.2459 88.0164 28.2569 88.0146 28.2689C87.9839 28.4802 90.389 29.1765 90.6671 29.2407C90.808 29.2732 90.9227 29.2596 91.0573 29.2334C91.0856 29.228 91.0898 29.2151 91.0699 29.1946ZM91.3409 30.8175C91.8882 31.0222 92.4484 31.1851 93.0216 31.3061C93.0384 31.3096 93.055 31.3096 93.0691 31.3061C93.0833 31.3025 93.0944 31.2956 93.1011 31.2863C93.3775 30.8916 91.368 30.6929 91.2804 30.6848C91.2501 30.6819 91.2209 30.6889 91.1982 30.7046C91.0365 30.8175 91.2786 30.7941 91.3409 30.8175ZM91.2939 31.9149C92.3006 32.5982 93.4166 32.9315 94.6419 32.9146C94.8086 32.9122 94.8165 32.8761 94.6653 32.8063C93.602 32.3155 92.4882 31.997 91.3237 31.8507C91.222 31.8381 91.212 31.8595 91.2939 31.9149Z" fill="#EFAD23"/>
<path d="M102.035 33.1539C104.606 30.5935 107.177 28.0232 109.786 25.5025C110.446 24.8643 111.217 24.6647 112.099 24.9037C114.236 25.4826 116.424 30.4237 116.006 32.5046C115.839 33.3391 115.301 34.03 114.495 34.3117C114.236 34.4027 113.82 34.4502 113.247 34.4544C109.756 34.4791 106.265 34.4867 102.775 34.477C102.607 34.4764 102.441 34.4653 102.275 34.4436C101.347 34.3244 101.565 33.6208 102.035 33.1539ZM107.097 30.5357C106.76 30.9177 107.284 30.7615 107.406 30.7109C108.266 30.3515 108.945 29.7759 109.441 28.9841C109.449 28.9712 109.454 28.9568 109.454 28.9429C109.455 28.9291 109.451 28.9163 109.443 28.9064C109.322 28.7466 108.543 29.2496 108.412 29.3436C107.929 29.691 107.49 30.0884 107.097 30.5357ZM110.439 31.9437C109.837 31.901 109.274 32.0126 108.75 32.2788C108.676 32.3161 108.64 32.3631 108.641 32.4197C108.641 32.4256 108.642 32.4315 108.644 32.437C108.647 32.4425 108.651 32.4475 108.655 32.4516C108.66 32.4557 108.665 32.459 108.671 32.4611C108.677 32.4632 108.684 32.4642 108.69 32.4639C109.312 32.4471 109.899 32.2959 110.45 32.0105C110.524 31.972 110.521 31.9497 110.439 31.9437ZM104.959 32.8152C105.07 32.7186 105.567 32.3989 105.559 32.2788C105.559 32.2733 105.557 32.2679 105.554 32.2632C105.551 32.2584 105.548 32.2544 105.543 32.2514C105.539 32.2484 105.534 32.2465 105.528 32.2459C105.523 32.2454 105.518 32.2461 105.513 32.2481C104.998 32.4624 104.541 32.7668 104.144 33.1611C104.125 33.1798 104.128 33.1891 104.151 33.1891C105.25 33.1882 106.297 33.1729 107.372 32.9137C107.461 32.892 107.746 32.7665 107.414 32.7457C106.595 32.6939 105.78 32.7249 104.97 32.8387C104.94 32.8429 104.936 32.8351 104.959 32.8152Z" fill="#EFAD23"/>
<path d="M90.3619 43.4678C89.652 44.1651 88.8925 45.0809 88.0905 45.3942C86.8496 45.8801 85.7541 45.0953 85.0496 44.0946C83.8569 42.3991 83.1422 40.5555 82.9055 38.5638C82.8477 38.0773 82.9128 37.6074 83.1006 37.154C83.5874 35.979 84.5438 35.653 85.727 35.6521C89.295 35.6503 92.8627 35.6548 96.4301 35.6656C96.6441 35.6665 96.8663 35.6484 97.0587 35.7361C97.6222 35.9925 97.3983 36.4486 97.0677 36.7873C95.4228 38.4714 93.1875 40.6982 90.3619 43.4678ZM86.5606 37.3409C87.675 37.3536 88.6414 37.3418 89.7333 37.0718C90.2138 36.9526 89.2284 36.7358 89.205 36.7349C88.2759 36.6976 87.3887 36.8728 86.5434 37.2606C86.4296 37.3129 86.4353 37.3397 86.5606 37.3409ZM93.2267 37.8042L91.1142 39.3459C91.1012 39.3552 91.0912 39.3675 91.0862 39.3804C91.0812 39.3934 91.0815 39.4062 91.0871 39.4164C91.101 39.4416 91.1283 39.4446 91.1693 39.4254C92.2832 38.9034 93.2826 38.2155 94.1677 37.3617C94.2779 37.2557 94.2562 37.2079 94.1027 37.2181C93.2929 37.2699 92.5032 37.4219 91.7338 37.6742C91.5324 37.7392 91.2415 37.788 91.0076 37.9415C90.9817 37.9584 90.9844 37.9665 91.0158 37.9659C91.713 37.9472 92.3434 37.912 92.9069 37.8602C92.9991 37.8518 93.1035 37.8292 93.2203 37.7925C93.2468 37.7841 93.2489 37.788 93.2267 37.8042ZM89.0659 40.5263C88.4517 40.3114 87.2596 41.1567 86.7909 41.5667C86.703 41.6432 86.7168 41.673 86.8324 41.6561C87.0085 41.6299 87.2162 41.629 87.3942 41.5586C88.0077 41.3141 88.5694 40.9993 89.0794 40.6139C89.1294 40.576 89.1249 40.5468 89.0659 40.5263Z" fill="#EFAD23"/>
<path d="M114.45 35.6972C115.69 36.1975 116.309 37.1236 116.306 38.4753C116.301 40.4902 114.3 45.0872 112 45.4764C111.048 45.6372 110.46 45.2163 109.769 44.5281C107.142 41.9156 104.538 39.28 101.958 36.6211C102.036 36.4567 101.947 36.3393 101.99 36.1921C102.061 35.9456 102.251 35.8923 102.5 35.8986C104.519 35.9558 106.537 35.9398 108.554 35.8507C108.724 35.8435 108.93 35.8932 109.106 35.8941C111.861 35.9043 113.529 35.9155 114.109 35.9275C114.279 35.9305 114.393 35.8537 114.45 35.6972ZM105.439 37.2118C105.837 37.4129 106.258 37.5008 106.703 37.4755C107.022 37.5134 107.323 37.6715 107.634 37.564C107.641 37.5615 107.648 37.5578 107.655 37.5532C107.661 37.5486 107.666 37.5432 107.67 37.5372C107.674 37.5312 107.676 37.5249 107.678 37.5185C107.679 37.5121 107.678 37.5057 107.676 37.4999L107.653 37.4339C107.647 37.4175 107.64 37.4029 107.632 37.3915C107.625 37.3801 107.617 37.3723 107.61 37.3689C106.809 36.9926 105.967 36.8285 105.084 36.8767C104.848 36.8894 104.828 36.958 105.025 37.0826C105.085 37.12 105.223 37.163 105.439 37.2118ZM111.396 37.816C111.603 37.7817 111.916 37.7392 112.177 37.6606C112.248 37.6396 112.252 37.6101 112.189 37.5721C111.372 37.0808 109.968 36.9986 109.035 37.0194C108.801 37.0242 108.722 37.1016 108.8 37.2515C108.813 37.2764 108.836 37.2955 108.865 37.3048C109.772 37.5884 110.397 37.9849 111.396 37.816ZM108.403 39.242C107.354 38.6035 106.359 37.9216 105.298 37.5378C105.234 37.5149 105.225 37.5288 105.271 37.5793C105.764 38.1221 106.288 38.4066 107.033 38.8058C107.264 38.9304 108.17 39.4489 108.389 39.3757C108.489 39.342 108.494 39.2974 108.403 39.242ZM111.033 39.9682C111.624 40.2529 112.236 40.3779 112.868 40.343C112.899 40.3412 112.903 40.3306 112.879 40.3114C112.449 39.9627 111.616 39.6051 110.994 39.6864C110.979 39.6883 110.966 39.6936 110.954 39.7018C110.942 39.71 110.933 39.7208 110.926 39.7333C110.879 39.8327 110.914 39.911 111.033 39.9682Z" fill="#EFAD23"/>
<path d="M95.3517 51.6774C93.1724 51.261 88.5131 49.4276 89.4533 46.3795C89.5445 46.0842 89.9022 45.7329 90.174 45.4592C92.6944 42.925 95.2304 40.4071 97.7821 37.9054C98.734 36.9733 98.9399 37.787 98.9372 38.6477C98.9264 42.2248 98.9339 45.8015 98.9598 49.378C98.9697 50.6288 98.0386 51.5816 96.8356 51.7686C96.4677 51.8258 95.9731 51.7954 95.3517 51.6774ZM96.9304 41.0284C96.599 41.3021 95.4989 42.5484 95.582 42.8618C95.5834 42.8666 95.5859 42.8709 95.5895 42.8744C95.593 42.8779 95.5975 42.8804 95.6024 42.8818C95.6073 42.8831 95.6126 42.8832 95.6177 42.8821C95.6228 42.881 95.6276 42.8787 95.6317 42.8753C96.1248 42.4825 96.9512 41.6624 96.9647 41.0456C96.9659 41.0143 96.9545 41.0085 96.9304 41.0284ZM97.5409 41.3165C97.2032 41.9261 96.7904 42.9964 97.1092 43.6665C97.1484 43.749 97.1881 43.7493 97.2285 43.6674C97.5145 43.0786 97.6605 42.4445 97.6665 41.7654C97.6674 41.638 97.6882 41.4601 97.6394 41.3237C97.6123 41.2491 97.5795 41.2467 97.5409 41.3165ZM93.13 46.0869C93.7333 45.4457 94.249 44.6446 94.4396 43.7776C94.4793 43.5997 94.3583 43.6087 94.2743 43.7071C93.6614 44.4333 93.1824 45.2392 92.8374 46.1248C92.8148 46.1817 92.7769 46.3606 92.8834 46.3244C92.8939 46.3211 92.9044 46.3139 92.9143 46.3034C92.9241 46.2929 92.933 46.2794 92.9403 46.2639C92.9864 46.17 93.0794 46.1402 93.13 46.0869ZM95.7021 44.846C95.3165 45.536 94.9986 46.6387 95.2903 47.4434C95.414 47.7857 95.5549 47.1942 95.5856 47.1382C95.6447 47.028 95.6814 46.9347 95.6958 46.8582C95.8199 46.2061 95.8731 45.548 95.8557 44.8839C95.8503 44.6858 95.7991 44.6732 95.7021 44.846Z" fill="#EFAD23"/>
<path d="M100.786 51.0271C100.362 50.6086 100.15 50.0944 100.151 49.4845C100.157 45.8009 100.167 42.117 100.182 38.4328C100.183 38.1263 100.215 37.902 100.278 37.7599C100.548 37.1566 101.07 37.6615 101.361 37.9514C104.021 40.603 106.668 43.2673 109.303 45.9442C109.409 46.0514 109.492 46.1742 109.552 46.3127C110.183 47.7704 109.423 48.9164 108.24 49.7157C106.559 50.8528 102.594 52.8117 100.786 51.0271ZM102.142 41.5107C102.46 42.0535 102.944 42.7218 103.41 43.2556C103.502 43.3609 103.532 43.3389 103.5 43.1896C103.407 42.757 102.277 40.5263 101.835 40.5028C101.622 40.4919 102.079 41.4014 102.142 41.5107ZM101.591 42.9305C101.603 42.9284 101.61 42.8987 101.612 42.843C101.613 42.7874 101.609 42.7068 101.6 42.6059C101.591 42.5051 101.577 42.386 101.559 42.2553C101.541 42.1247 101.519 41.9851 101.494 41.8445C101.47 41.704 101.443 41.5652 101.416 41.4361C101.389 41.307 101.362 41.1902 101.336 41.0923C101.31 40.9944 101.287 40.9172 101.266 40.8654C101.246 40.8135 101.23 40.7878 101.218 40.7899C101.206 40.7919 101.199 40.8217 101.198 40.8774C101.196 40.933 101.2 41.0136 101.209 41.1145C101.218 41.2153 101.232 41.3344 101.25 41.4651C101.268 41.5957 101.29 41.7353 101.315 41.8759C101.339 42.0164 101.366 42.1552 101.393 42.2843C101.42 42.4133 101.447 42.5302 101.473 42.6281C101.499 42.726 101.522 42.8032 101.543 42.855C101.563 42.9069 101.58 42.9326 101.591 42.9305ZM104.654 44.6771C105.111 45.3057 105.648 46.1167 106.279 46.5746C106.366 46.6372 106.386 46.617 106.339 46.5141C105.975 45.7073 105.464 45.0052 104.807 44.408C104.633 44.2496 104.523 44.1644 104.479 44.1524C104.242 44.0873 104.625 44.6365 104.654 44.6771ZM104.033 47.6557C103.887 46.6875 103.455 45.7889 103.093 44.8866C103.064 44.8144 103.041 44.8162 103.025 44.892C102.827 45.8132 103.384 46.9991 103.97 47.6855C104.024 47.7493 104.045 47.7393 104.033 47.6557Z" fill="#EFAD23"/>
<path d="M29.1274 90.3027H21.116C21.0592 89.6398 20.9077 89.0385 20.6614 88.4987C20.4247 87.9589 20.0933 87.4949 19.6671 87.1067C19.2505 86.7089 18.7438 86.4059 18.1472 86.1976C17.5506 85.9798 16.8736 85.8709 16.116 85.8709C14.7902 85.8709 13.6681 86.1928 12.7495 86.8368C11.8404 87.4807 11.1491 88.404 10.6756 89.6067C10.2116 90.8093 9.97963 92.2534 9.97963 93.939C9.97963 95.7193 10.2164 97.2108 10.6899 98.4135C11.1728 99.6067 11.8688 100.506 12.7779 101.112C13.687 101.709 14.7808 102.007 16.0592 102.007C16.7883 102.007 17.4417 101.917 18.0194 101.737C18.5971 101.548 19.0989 101.278 19.5251 100.928C19.9512 100.577 20.2969 100.156 20.562 99.6635C20.8366 99.1616 21.0213 98.5981 21.116 97.9731L29.1274 98.03C29.0327 99.261 28.687 100.516 28.0904 101.794C27.4938 103.063 26.6463 104.237 25.5478 105.317C24.4588 106.387 23.1094 107.249 21.4995 107.902C19.8897 108.556 18.0194 108.882 15.8887 108.882C13.2183 108.882 10.8224 108.309 8.70122 107.163C6.58947 106.018 4.91807 104.332 3.68701 102.107C2.46542 99.8813 1.85463 97.1587 1.85463 93.939C1.85463 90.7004 2.47963 87.9731 3.72963 85.7572C4.97963 83.5318 6.66523 81.851 8.78644 80.7146C10.9077 79.5688 13.2751 78.9959 15.8887 78.9959C17.7258 78.9959 19.4162 79.2468 20.9597 79.7487C22.5033 80.2506 23.8575 80.9845 25.0222 81.9504C26.187 82.9068 27.1245 84.0858 27.8347 85.4873C28.545 86.8889 28.9758 88.494 29.1274 90.3027ZM29.9041 108.484V86.6663H37.745V108.484H29.9041ZM33.8245 84.3936C32.7639 84.3936 31.8548 84.0432 31.0973 83.3425C30.3397 82.6417 29.9609 81.7989 29.9609 80.814C29.9609 79.8292 30.3397 78.9864 31.0973 78.2856C31.8548 77.5849 32.7639 77.2345 33.8245 77.2345C34.8946 77.2345 35.8037 77.5849 36.5518 78.2856C37.3094 78.9864 37.6882 79.8292 37.6882 80.814C37.6882 81.7989 37.3094 82.6417 36.5518 83.3425C35.8037 84.0432 34.8946 84.3936 33.8245 84.3936ZM51.8314 86.6663V92.3481H37.4564V86.6663H51.8314ZM40.2405 81.439H48.0814V101.467C48.0814 101.77 48.1335 102.026 48.2376 102.234C48.3418 102.433 48.5028 102.585 48.7206 102.689C48.9384 102.784 49.2178 102.831 49.5587 102.831C49.7954 102.831 50.07 102.803 50.3825 102.746C50.7045 102.689 50.9412 102.642 51.0928 102.604L52.2291 108.115C51.8787 108.219 51.3768 108.347 50.7234 108.499C50.0795 108.65 49.3124 108.75 48.4223 108.797C46.6231 108.892 45.1126 108.707 43.891 108.243C42.6695 107.77 41.7509 107.026 41.1354 106.013C40.5198 105 40.2215 103.731 40.2405 102.206V81.439ZM52.111 108.484V86.6663H59.7246V90.814H59.9519C60.3496 89.28 60.9793 88.1578 61.8411 87.4476C62.7123 86.7373 63.7303 86.3822 64.895 86.3822C65.236 86.3822 65.5721 86.4106 65.9036 86.4675C66.2445 86.5148 66.5712 86.5858 66.8837 86.6805V93.3709C66.4954 93.2383 66.0172 93.1389 65.449 93.0726C64.8808 93.0063 64.3932 92.9731 63.986 92.9731C63.2189 92.9731 62.5276 93.1483 61.9121 93.4987C61.306 93.8396 60.8278 94.3226 60.4774 94.9476C60.1271 95.5631 59.9519 96.2875 59.9519 97.1209V108.484H52.111ZM80.6824 98.939V86.6663H88.5233V108.484H81.0802V104.337H80.8529C80.3794 105.729 79.5508 106.818 78.3671 107.604C77.1834 108.38 75.7771 108.769 74.1483 108.769C72.6237 108.769 71.2885 108.418 70.1427 107.717C69.0063 107.017 68.1209 106.051 67.4864 104.82C66.8614 103.589 66.5442 102.178 66.5347 100.587V86.6663H74.3756V98.939C74.3851 100.019 74.6597 100.866 75.1995 101.482C75.7487 102.097 76.5158 102.405 77.5006 102.405C78.154 102.405 78.7175 102.268 79.191 101.993C79.6739 101.709 80.0432 101.311 80.2989 100.8C80.5641 100.279 80.6919 99.6587 80.6824 98.939ZM109.534 93.7686H102.319C102.281 93.3235 102.124 92.94 101.85 92.618C101.575 92.296 101.22 92.0498 100.784 91.8794C100.358 91.6995 99.8848 91.6095 99.364 91.6095C98.6917 91.6095 98.114 91.7326 97.631 91.9788C97.1481 92.225 96.9114 92.5754 96.9208 93.03C96.9114 93.3519 97.0487 93.6502 97.3328 93.9248C97.6263 94.1995 98.1898 94.4125 99.0231 94.564L103.455 95.3595C105.69 95.7667 107.352 96.4532 108.441 97.4192C109.539 98.3756 110.093 99.6587 110.103 101.269C110.093 102.822 109.629 104.171 108.711 105.317C107.802 106.453 106.556 107.334 104.975 107.959C103.403 108.574 101.608 108.882 99.5913 108.882C96.2579 108.882 93.649 108.2 91.7646 106.837C89.8896 105.473 88.8432 103.674 88.6254 101.439H96.4095C96.5136 102.13 96.8545 102.665 97.4322 103.044C98.0193 103.413 98.7579 103.598 99.6481 103.598C100.368 103.598 100.96 103.475 101.424 103.229C101.897 102.983 102.139 102.632 102.148 102.178C102.139 101.761 101.93 101.43 101.523 101.183C101.125 100.937 100.5 100.738 99.6481 100.587L95.7845 99.905C93.5591 99.5167 91.8924 98.7781 90.7845 97.689C89.6765 96.6 89.1273 95.1985 89.1367 93.4845C89.1273 91.9693 89.525 90.6862 90.3299 89.6351C91.1443 88.5745 92.3043 87.7695 93.81 87.2203C95.3252 86.6616 97.1197 86.3822 99.1935 86.3822C102.347 86.3822 104.833 87.0356 106.651 88.3425C108.479 89.6493 109.44 91.458 109.534 93.7686ZM117.63 108.484H109.107L118.71 79.3936H129.505L139.107 108.484H130.585L124.221 87.405H123.994L117.63 108.484ZM116.039 97.0072H132.062V102.916H116.039V97.0072ZM146.944 79.3936V108.484H139.103V79.3936H146.944ZM158.473 108.882C156.144 108.882 154.136 108.437 152.451 107.547C150.774 106.647 149.482 105.359 148.573 103.683C147.673 101.998 147.223 99.9807 147.223 97.6322C147.223 95.3784 147.678 93.4087 148.587 91.7231C149.496 90.0375 150.779 88.726 152.436 87.7885C154.094 86.851 156.049 86.3822 158.303 86.3822C159.951 86.3822 161.442 86.6379 162.777 87.1493C164.113 87.6606 165.254 88.404 166.201 89.3794C167.148 90.3453 167.877 91.5195 168.388 92.9021C168.899 94.2847 169.155 95.8425 169.155 97.5754V99.3936H149.666V95.0754H161.939C161.93 94.4504 161.769 93.9012 161.456 93.4277C161.153 92.9447 160.741 92.5707 160.22 92.3055C159.709 92.0309 159.127 91.8936 158.473 91.8936C157.839 91.8936 157.256 92.0309 156.726 92.3055C156.196 92.5707 155.77 92.94 155.448 93.4135C155.135 93.887 154.97 94.4409 154.951 95.0754V99.7345C154.951 100.435 155.097 101.06 155.391 101.609C155.684 102.159 156.106 102.59 156.655 102.902C157.204 103.215 157.867 103.371 158.644 103.371C159.184 103.371 159.676 103.295 160.121 103.144C160.576 102.992 160.964 102.774 161.286 102.49C161.608 102.197 161.845 101.846 161.996 101.439H169.155C168.909 102.954 168.327 104.27 167.408 105.388C166.489 106.496 165.273 107.358 163.757 107.973C162.252 108.579 160.49 108.882 158.473 108.882ZM169.435 108.484V86.6663H177.048V90.814H177.276C177.673 89.28 178.303 88.1578 179.165 87.4476C180.036 86.7373 181.054 86.3822 182.219 86.3822C182.56 86.3822 182.896 86.4106 183.227 86.4675C183.568 86.5148 183.895 86.5858 184.207 86.6805V93.3709C183.819 93.2383 183.341 93.1389 182.773 93.0726C182.205 93.0063 181.717 92.9731 181.31 92.9731C180.543 92.9731 179.851 93.1483 179.236 93.4987C178.63 93.8396 178.152 94.3226 177.801 94.9476C177.451 95.5631 177.276 96.2875 177.276 97.1209V108.484H169.435ZM197.768 86.6663V92.3481H183.393V86.6663H197.768ZM186.177 81.439H194.018V101.467C194.018 101.77 194.07 102.026 194.175 102.234C194.279 102.433 194.44 102.585 194.657 102.689C194.875 102.784 195.155 102.831 195.496 102.831C195.732 102.831 196.007 102.803 196.319 102.746C196.641 102.689 196.878 102.642 197.03 102.604L198.166 108.115C197.816 108.219 197.314 108.347 196.66 108.499C196.016 108.65 195.249 108.75 194.359 108.797C192.56 108.892 191.05 108.707 189.828 108.243C188.606 107.77 187.688 107.026 187.072 106.013C186.457 105 186.158 103.731 186.177 102.206V81.439Z" fill="#1954DC"/>
</svg>
