<svg width="200" height="117" viewBox="0 0 200 117" fill="none" xmlns="http://www.w3.org/2000/svg">
<path d="M120.907 34.7709C120.907 46.5424 111.365 56.0851 99.5933 56.0851C87.8218 56.0851 78.2792 46.5424 78.2792 34.7709C78.2792 22.9995 87.8218 13.4568 99.5933 13.4568C111.365 13.4568 120.907 22.9995 120.907 34.7709Z" fill="#FFFEFD"/>
<path fill-rule="evenodd" clip-rule="evenodd" d="M99.5933 53.8272C110.118 53.8272 118.65 45.2954 118.65 34.7709C118.65 24.2464 110.118 15.7146 99.5933 15.7146C89.0688 15.7146 80.537 24.2464 80.537 34.7709C80.537 45.2954 89.0688 53.8272 99.5933 53.8272ZM99.5933 56.0851C111.365 56.0851 120.907 46.5424 120.907 34.7709C120.907 22.9995 111.365 13.4568 99.5933 13.4568C87.8218 13.4568 78.2792 22.9995 78.2792 34.7709C78.2792 46.5424 87.8218 56.0851 99.5933 56.0851Z" fill="#EFAD23"/>
<path d="M97.9437 31.8936C95.3797 29.4081 92.8229 26.8965 90.3366 24.3343C89.9404 23.9255 89.686 23.597 89.5734 23.349C88.3542 20.6612 93.8191 18.7727 95.5432 18.3871C96.0905 18.2649 96.5234 18.2206 96.8419 18.2543C97.6619 18.3401 98.5028 18.836 98.8116 19.6307C98.8935 19.8415 98.9348 20.1527 98.9354 20.5646C98.9354 21.3497 98.9366 22.1351 98.939 22.9209C98.9399 23.1557 98.9805 23.5838 98.9435 23.9216C98.9405 23.9511 98.945 23.9803 98.957 24.0092C99.0844 24.3153 99.0329 24.8969 99.023 25.3386C99.0224 25.3669 99.0145 25.3949 98.9995 25.4226C98.9742 25.4677 98.9613 25.5018 98.9607 25.5246C98.9372 27.3598 98.9378 29.1947 98.9625 31.0293C98.9688 31.4772 98.9029 31.9487 98.4296 32.039C98.2424 32.0745 98.0804 32.026 97.9437 31.8936ZM96.2864 22.4783C96.263 23.0618 96.421 23.5907 96.7606 24.0652C96.7699 24.0784 96.7821 24.0886 96.7955 24.0943C96.8089 24.1 96.8226 24.1009 96.8347 24.0968C97.167 23.9839 96.486 22.5985 96.3804 22.4458C96.322 22.3609 96.2907 22.3718 96.2864 22.4783ZM93.2654 24.0778C93.5544 24.9277 94.2788 25.6727 95.0491 26.1622C95.0584 26.1682 95.0687 26.1716 95.0785 26.172C95.0883 26.1723 95.097 26.1695 95.1033 26.1641C95.1196 26.1496 95.1277 26.1026 95.1205 26.0819C94.8261 25.2149 94.23 24.2855 93.4018 23.843C93.3901 23.8366 93.3767 23.8343 93.3637 23.8364C93.3507 23.8385 93.339 23.845 93.3305 23.8547C93.263 23.9318 93.2414 24.0061 93.2654 24.0778ZM97.2853 28.3469C97.0631 27.9086 96.7961 27.4977 96.4842 27.1142C96.3951 27.0046 96.3843 27.0356 96.4517 27.2072C96.6239 27.6443 96.8353 28.0616 97.0857 28.4589C97.1815 28.6107 97.335 28.6811 97.4623 28.8139C97.4658 28.8174 97.4702 28.82 97.4749 28.8216C97.4796 28.8231 97.4845 28.8235 97.4893 28.8227C97.4941 28.8219 97.4985 28.8199 97.5021 28.8169C97.5058 28.814 97.5085 28.8101 97.5102 28.8057C97.7044 28.2928 97.4903 27.3725 97.335 26.8559C97.2935 26.7168 97.2633 26.7195 97.2447 26.864C97.1833 27.3246 97.2146 27.7813 97.3386 28.2341C97.3464 28.263 97.3413 28.3003 97.3233 28.346C97.3118 28.3743 97.2992 28.3746 97.2853 28.3469Z" fill="#EFAD23"/>
<path d="M100.174 26.3402C100.254 24.9222 100.235 24.178 100.175 23.0861C100.252 22.7544 100.247 22.4232 100.159 22.0927C100.143 21.2961 100.149 20.641 100.177 20.1275C100.225 19.2406 101 18.556 101.821 18.3582C102.654 18.1586 103.596 18.3564 104.451 18.6481C105.939 19.1548 107.413 19.8683 108.64 20.8093C109.664 21.5942 110.139 22.8558 109.131 23.889C106.985 26.0891 104.411 28.6104 101.41 31.4528C101.283 31.5733 101.08 31.7292 100.801 31.9207C100.776 31.9382 100.747 31.9468 100.719 31.9451C100.269 31.9153 100.178 31.5964 100.181 31.1855C100.189 29.5695 100.187 27.9544 100.174 26.3402ZM103.298 24.6666C103.54 24.4499 103.673 24.1789 103.697 23.8538C103.855 23.5257 103.94 23.1795 103.952 22.8152C103.956 22.7273 103.924 22.7192 103.857 22.7908C103.318 23.3616 102.946 24.2765 102.841 24.9376C102.756 25.4786 103.242 24.757 103.298 24.6666ZM105.66 23.8755C104.964 24.1464 104.222 25.5011 103.938 26.1758C103.845 26.3956 103.903 26.4473 104.11 26.3311C104.216 26.2733 104.446 25.959 104.547 25.8461C104.901 25.447 105.689 24.4318 105.69 23.8963C105.69 23.8926 105.689 23.8891 105.687 23.8858C105.686 23.8826 105.683 23.8799 105.68 23.8779C105.677 23.8758 105.674 23.8745 105.67 23.8741C105.667 23.8737 105.663 23.8742 105.66 23.8755ZM102.075 27.7102C102.058 27.5802 101.943 26.3953 101.902 26.388C101.898 26.3875 101.893 26.3885 101.889 26.391C101.885 26.3935 101.88 26.3975 101.877 26.4027C101.873 26.4079 101.87 26.4142 101.867 26.4213C101.864 26.4284 101.863 26.4361 101.862 26.444C101.775 27.1298 101.716 27.818 101.685 28.5086C101.679 28.635 101.731 28.9466 101.923 28.6928C102.23 28.2891 103.179 26.8766 103.143 26.3329C103.141 26.3022 103.127 26.2953 103.103 26.3122C102.714 26.5831 102.385 27.3119 102.105 27.7175C102.089 27.7421 102.078 27.7397 102.075 27.7102Z" fill="#EFAD23"/>
<path d="M83.9387 33.5002C81.7205 31.7617 84.2105 27.0527 85.5011 25.4126C86.2922 24.4065 87.6181 23.908 88.7506 24.6693C88.9872 24.8283 89.3566 25.1841 89.6266 25.4505C92.1494 27.9378 94.6608 30.4368 97.1607 32.9475C97.3214 33.1095 97.4138 33.2588 97.4379 33.3955C97.4843 33.6556 97.3596 33.8317 97.064 33.9238C96.9219 33.9678 96.7768 33.9897 96.6287 33.9897C93.1414 33.9933 89.6543 33.993 86.1676 33.9888C85.1976 33.9879 84.5925 34.0132 83.9387 33.5002ZM91.0699 28.71C90.519 28.1563 88.8346 27.7183 88.0723 27.74C88.058 27.7404 88.0443 27.7451 88.0337 27.7532C88.0231 27.7613 88.0164 27.7723 88.0145 27.7843C87.9838 27.9956 90.3889 28.6919 90.6671 28.756C90.808 28.7885 90.9227 28.775 91.0572 28.7488C91.0855 28.7434 91.0897 28.7304 91.0699 28.71ZM91.3408 30.3329C91.8881 30.5376 92.4484 30.7005 93.0216 30.8215C93.0384 30.825 93.0549 30.825 93.0691 30.8214C93.0833 30.8179 93.0944 30.811 93.101 30.8016C93.3774 30.407 91.3679 30.2083 91.2803 30.2002C91.25 30.1973 91.2209 30.2043 91.1981 30.22C91.0365 30.3329 91.2785 30.3094 91.3408 30.3329ZM91.2938 31.4302C92.3005 32.1136 93.4165 32.4469 94.6418 32.43C94.8086 32.4276 94.8164 32.3915 94.6653 32.3216C93.602 31.8309 92.4881 31.5124 91.3237 31.3661C91.2219 31.3535 91.212 31.3748 91.2938 31.4302Z" fill="#EFAD23"/>
<path d="M102.035 32.6694C104.606 30.109 107.177 27.5387 109.786 25.018C110.446 24.3798 111.217 24.1802 112.099 24.4192C114.235 24.9981 116.424 29.9392 116.006 32.0201C115.839 32.8546 115.301 33.5455 114.495 33.8272C114.236 33.9182 113.82 33.9657 113.247 33.9699C109.756 33.9946 106.265 34.0022 102.775 33.9925C102.607 33.9919 102.441 33.9808 102.275 33.9591C101.347 33.8399 101.565 33.1363 102.035 32.6694ZM107.097 30.0512C106.76 30.4332 107.284 30.277 107.406 30.2264C108.266 29.867 108.945 29.2914 109.441 28.4996C109.449 28.4867 109.454 28.4723 109.454 28.4584C109.455 28.4446 109.451 28.4318 109.443 28.422C109.322 28.2621 108.543 28.7651 108.412 28.8591C107.929 29.2065 107.49 29.6039 107.097 30.0512ZM110.439 31.4592C109.837 31.4165 109.274 31.5282 108.75 31.7943C108.676 31.8316 108.64 31.8786 108.641 31.9352C108.64 31.9411 108.642 31.947 108.644 31.9525C108.647 31.958 108.65 31.963 108.655 31.9671C108.66 31.9713 108.665 31.9745 108.671 31.9766C108.677 31.9787 108.684 31.9797 108.69 31.9794C109.312 31.9626 109.899 31.8114 110.449 31.526C110.524 31.4875 110.521 31.4652 110.439 31.4592ZM104.959 32.3307C105.07 32.2341 105.567 31.9144 105.559 31.7943C105.559 31.7888 105.557 31.7834 105.554 31.7787C105.551 31.7739 105.548 31.7699 105.543 31.7669C105.539 31.7639 105.534 31.762 105.528 31.7614C105.523 31.7609 105.518 31.7616 105.513 31.7636C104.998 31.9779 104.541 32.2823 104.144 32.6766C104.125 32.6953 104.128 32.7046 104.151 32.7046C105.25 32.7037 106.297 32.6884 107.372 32.4292C107.461 32.4075 107.746 32.282 107.414 32.2612C106.595 32.2094 105.78 32.2404 104.97 32.3542C104.94 32.3584 104.936 32.3506 104.959 32.3307Z" fill="#EFAD23"/>
<path d="M90.3619 42.9833C89.652 43.6805 88.8925 44.5963 88.0905 44.9097C86.8495 45.3956 85.754 44.6107 85.0496 43.6101C83.8568 41.9146 83.1422 40.071 82.9055 38.0792C82.8477 37.5927 82.9128 37.1228 83.1006 36.6694C83.5874 35.4944 84.5438 35.1684 85.7269 35.1675C89.295 35.1657 92.8627 35.1702 96.4301 35.181C96.6441 35.1819 96.8663 35.1639 97.0587 35.2515C97.6222 35.508 97.3982 35.9641 97.0677 36.3028C95.4228 37.9868 93.1875 40.2137 90.3619 42.9833ZM86.5605 36.8564C87.675 36.869 88.6414 36.8573 89.7333 36.5872C90.2138 36.468 89.2284 36.2513 89.2049 36.2504C88.2759 36.213 87.3887 36.3882 86.5434 36.776C86.4296 36.8284 86.4353 36.8552 86.5605 36.8564ZM93.2266 37.3197L91.1142 38.8613C91.1012 38.8706 91.0912 38.8829 91.0862 38.8959C91.0812 38.9089 91.0815 38.9217 91.0871 38.9318C91.1009 38.9571 91.1283 38.9601 91.1693 38.9408C92.2832 38.4188 93.2826 37.7309 94.1677 36.8771C94.2779 36.7712 94.2562 36.7233 94.1027 36.7335C93.2929 36.7853 92.5032 36.9374 91.7337 37.1896C91.5323 37.2547 91.2415 37.3034 91.0076 37.457C90.9817 37.4738 90.9844 37.482 91.0157 37.4813C91.713 37.4627 92.3434 37.4275 92.9069 37.3757C92.999 37.3672 93.1035 37.3447 93.2203 37.3079C93.2468 37.2995 93.2489 37.3034 93.2266 37.3197ZM89.0659 40.0418C88.4517 39.8268 87.2596 40.6721 86.7908 41.0822C86.7029 41.1586 86.7168 41.1884 86.8324 41.1716C87.0085 41.1454 87.2162 41.1445 87.3941 41.074C88.0077 40.8296 88.5694 40.5147 89.0794 40.1294C89.1294 40.0914 89.1249 40.0622 89.0659 40.0418Z" fill="#EFAD23"/>
<path d="M114.451 35.2126C115.69 35.713 116.309 36.639 116.306 37.9907C116.301 40.0056 114.3 44.6026 112 44.9919C111.048 45.1526 110.46 44.7318 109.77 44.0436C107.142 41.4311 104.538 38.7954 101.958 36.1366C102.036 35.9722 101.947 35.8548 101.99 35.7076C102.061 35.461 102.251 35.4077 102.5 35.414C104.519 35.4712 106.537 35.4553 108.554 35.3662C108.724 35.359 108.93 35.4086 109.106 35.4095C111.861 35.4198 113.529 35.4309 114.109 35.4429C114.28 35.446 114.393 35.3692 114.451 35.2126ZM105.439 36.7272C105.837 36.9283 106.258 37.0162 106.703 36.9909C107.022 37.0289 107.323 37.1869 107.634 37.0794C107.641 37.0769 107.648 37.0732 107.655 37.0687C107.661 37.0641 107.666 37.0586 107.67 37.0526C107.674 37.0467 107.677 37.0403 107.678 37.0339C107.679 37.0275 107.678 37.0212 107.676 37.0153L107.653 36.9494C107.647 36.9329 107.64 36.9183 107.632 36.9069C107.625 36.8956 107.617 36.8878 107.61 36.8844C106.809 36.5081 105.967 36.344 105.084 36.3921C104.848 36.4048 104.828 36.4734 105.025 36.5981C105.085 36.6354 105.223 36.6784 105.439 36.7272ZM111.396 37.3314C111.603 37.2971 111.916 37.2546 112.177 37.1761C112.248 37.155 112.252 37.1255 112.189 37.0876C111.372 36.5963 109.968 36.5141 109.035 36.5348C108.801 36.5397 108.722 36.617 108.8 36.7669C108.813 36.7918 108.837 36.811 108.865 36.8202C109.772 37.1038 110.397 37.5003 111.396 37.3314ZM108.403 38.7575C107.355 38.119 106.359 37.4371 105.298 37.0532C105.234 37.0304 105.225 37.0442 105.271 37.0948C105.764 37.6376 106.288 37.9221 107.033 38.3213C107.264 38.4459 108.17 38.9643 108.389 38.8911C108.489 38.8574 108.494 38.8129 108.403 38.7575ZM111.033 39.4836C111.624 39.7684 112.236 39.8933 112.868 39.8584C112.9 39.8566 112.903 39.8461 112.879 39.8268C112.449 39.4782 111.616 39.1205 110.994 39.2018C110.98 39.2038 110.966 39.2091 110.954 39.2172C110.942 39.2254 110.933 39.2363 110.926 39.2488C110.879 39.3481 110.914 39.4264 111.033 39.4836Z" fill="#EFAD23"/>
<path d="M95.3517 51.1928C93.1724 50.7765 88.5131 48.9431 89.4533 45.895C89.5445 45.5996 89.9021 45.2483 90.174 44.9747C92.6943 42.4405 95.2304 39.9225 97.782 37.4208C98.7339 36.4888 98.9399 37.3025 98.9372 38.1632C98.9263 41.7402 98.9338 45.317 98.9597 48.8934C98.9697 50.1443 98.0385 51.0971 96.8355 51.284C96.4677 51.3412 95.973 51.3108 95.3517 51.1928ZM96.9304 40.5439C96.5989 40.8175 95.4989 42.0638 95.582 42.3772C95.5833 42.382 95.5859 42.3864 95.5894 42.3899C95.593 42.3933 95.5974 42.3959 95.6024 42.3972C95.6073 42.3986 95.6126 42.3987 95.6177 42.3976C95.6228 42.3964 95.6276 42.3941 95.6316 42.3908C96.1248 41.9979 96.9511 41.1779 96.9647 40.561C96.9659 40.5297 96.9545 40.524 96.9304 40.5439ZM97.5409 40.832C97.2031 41.4416 96.7904 42.5118 97.1092 43.1819C97.1483 43.2644 97.1881 43.2647 97.2284 43.1828C97.5144 42.594 97.6604 41.96 97.6664 41.2808C97.6673 41.1535 97.6881 40.9756 97.6393 40.8392C97.6122 40.7645 97.5794 40.7621 97.5409 40.832ZM93.13 45.6024C93.7332 44.9611 94.2489 44.16 94.4395 43.293C94.4792 43.1151 94.3582 43.1241 94.2742 43.2226C93.6613 43.9487 93.1823 44.7546 92.8373 45.6403C92.8147 45.6972 92.7768 45.876 92.8834 45.8399C92.8938 45.8365 92.9043 45.8293 92.9142 45.8189C92.9241 45.8084 92.933 45.7949 92.9403 45.7794C92.9863 45.6854 93.0794 45.6556 93.13 45.6024ZM95.7021 44.3614C95.3165 45.0514 94.9985 46.1542 95.2903 46.9589C95.414 47.3012 95.5549 46.7096 95.5856 46.6536C95.6446 46.5434 95.6813 46.4501 95.6958 46.3736C95.8198 45.7216 95.8731 45.0635 95.8556 44.3994C95.8502 44.2013 95.799 44.1886 95.7021 44.3614Z" fill="#EFAD23"/>
<path d="M100.786 50.5425C100.362 50.1241 100.15 49.6099 100.151 49C100.157 45.3163 100.167 41.6324 100.182 37.9482C100.183 37.6418 100.215 37.4175 100.278 37.2754C100.548 36.6721 101.07 37.1769 101.361 37.4668C104.021 40.1185 106.668 42.7827 109.303 45.4596C109.409 45.5668 109.492 45.6896 109.552 45.8281C110.183 47.2858 109.423 48.4319 108.24 49.2312C106.559 50.3682 102.594 52.3271 100.786 50.5425ZM102.142 41.0261C102.46 41.5689 102.944 42.2372 103.41 42.771C103.502 42.8764 103.532 42.8544 103.5 42.7051C103.407 42.2725 102.277 40.0417 101.835 40.0182C101.622 40.0074 102.079 40.9168 102.142 41.0261ZM101.591 42.4459C101.603 42.4439 101.61 42.4142 101.612 42.3585C101.613 42.3028 101.609 42.2222 101.6 42.1214C101.591 42.0205 101.577 41.9014 101.559 41.7708C101.541 41.6401 101.519 41.5005 101.494 41.36C101.47 41.2194 101.443 41.0806 101.416 40.9516C101.389 40.8225 101.362 40.7057 101.336 40.6077C101.31 40.5098 101.287 40.4327 101.266 40.3808C101.246 40.3289 101.23 40.3033 101.218 40.3053C101.206 40.3074 101.199 40.3371 101.198 40.3928C101.196 40.4485 101.2 40.5291 101.209 40.6299C101.218 40.7307 101.232 40.8499 101.25 40.9805C101.268 41.1112 101.29 41.2508 101.315 41.3913C101.339 41.5319 101.366 41.6706 101.393 41.7997C101.42 41.9288 101.447 42.0456 101.473 42.1436C101.499 42.2415 101.522 42.3186 101.543 42.3705C101.563 42.4224 101.58 42.448 101.591 42.4459ZM104.654 44.1925C105.111 44.8211 105.648 45.6321 106.279 46.09C106.366 46.1527 106.386 46.1325 106.339 46.0295C105.975 45.2227 105.464 44.5207 104.807 43.9234C104.633 43.765 104.523 43.6799 104.479 43.6678C104.242 43.6028 104.625 44.1519 104.654 44.1925ZM104.033 47.1711C103.887 46.2029 103.455 45.3043 103.093 44.4021C103.064 44.3298 103.041 44.3316 103.025 44.4075C102.827 45.3287 103.384 46.5145 103.969 47.2009C104.024 47.2647 104.045 47.2548 104.033 47.1711Z" fill="#EFAD23"/>
<path d="M29.1274 89.8182H21.116C21.0592 89.1553 20.9077 88.554 20.6614 88.0142C20.4247 87.4744 20.0933 87.0104 19.6671 86.6222C19.2505 86.2244 18.7438 85.9214 18.1472 85.7131C17.5506 85.4953 16.8736 85.3864 16.116 85.3864C14.7902 85.3864 13.6681 85.7083 12.7495 86.3523C11.8404 86.9962 11.1491 87.9195 10.6756 89.1222C10.2116 90.3248 9.97963 91.7689 9.97963 93.4545C9.97963 95.2348 10.2164 96.7263 10.6899 97.929C11.1728 99.1222 11.8688 100.022 12.7779 100.628C13.687 101.224 14.7808 101.523 16.0592 101.523C16.7883 101.523 17.4417 101.433 18.0194 101.253C18.5971 101.063 19.0989 100.794 19.5251 100.443C19.9512 100.093 20.2969 99.6714 20.562 99.179C20.8366 98.6771 21.0213 98.1136 21.116 97.4886L29.1274 97.5455C29.0327 98.7765 28.687 100.031 28.0904 101.31C27.4938 102.579 26.6463 103.753 25.5478 104.832C24.4588 105.902 23.1094 106.764 21.4995 107.418C19.8897 108.071 18.0194 108.398 15.8887 108.398C13.2183 108.398 10.8224 107.825 8.70122 106.679C6.58947 105.533 4.91807 103.848 3.68701 101.622C2.46542 99.3968 1.85463 96.6742 1.85463 93.4545C1.85463 90.2159 2.47963 87.4886 3.72963 85.2727C4.97963 83.0473 6.66523 81.3665 8.78644 80.2301C10.9077 79.0843 13.2751 78.5114 15.8887 78.5114C17.7258 78.5114 19.4162 78.7623 20.9597 79.2642C22.5033 79.7661 23.8575 80.5 25.0222 81.4659C26.187 82.4223 27.1245 83.6013 27.8347 85.0028C28.545 86.4044 28.9758 88.0095 29.1274 89.8182ZM29.9041 108V86.1818H37.745V108H29.9041ZM33.8245 83.9091C32.7639 83.9091 31.8548 83.5587 31.0973 82.858C30.3397 82.1572 29.9609 81.3144 29.9609 80.3295C29.9609 79.3447 30.3397 78.5019 31.0973 77.8011C31.8548 77.1004 32.7639 76.75 33.8245 76.75C34.8946 76.75 35.8037 77.1004 36.5518 77.8011C37.3094 78.5019 37.6882 79.3447 37.6882 80.3295C37.6882 81.3144 37.3094 82.1572 36.5518 82.858C35.8037 83.5587 34.8946 83.9091 33.8245 83.9091ZM51.8314 86.1818V91.8636H37.4564V86.1818H51.8314ZM40.2405 80.9545H48.0814V100.983C48.0814 101.286 48.1335 101.542 48.2376 101.75C48.3418 101.949 48.5028 102.1 48.7206 102.205C48.9384 102.299 49.2178 102.347 49.5587 102.347C49.7954 102.347 50.07 102.318 50.3825 102.261C50.7045 102.205 50.9412 102.157 51.0928 102.119L52.2291 107.631C51.8787 107.735 51.3768 107.863 50.7234 108.014C50.0795 108.166 49.3124 108.265 48.4223 108.312C46.6231 108.407 45.1126 108.223 43.891 107.759C42.6695 107.285 41.7509 106.542 41.1354 105.528C40.5198 104.515 40.2215 103.246 40.2405 101.722V80.9545ZM52.111 108V86.1818H59.7246V90.3295H59.9519C60.3496 88.7955 60.9793 87.6733 61.8411 86.9631C62.7123 86.2528 63.7303 85.8977 64.895 85.8977C65.236 85.8977 65.5721 85.9261 65.9036 85.983C66.2445 86.0303 66.5712 86.1013 66.8837 86.196V92.8864C66.4954 92.7538 66.0172 92.6544 65.449 92.5881C64.8808 92.5218 64.3932 92.4886 63.986 92.4886C63.2189 92.4886 62.5276 92.6638 61.9121 93.0142C61.306 93.3551 60.8278 93.8381 60.4774 94.4631C60.1271 95.0786 59.9519 95.803 59.9519 96.6364V108H52.111ZM80.6824 98.4545V86.1818H88.5233V108H81.0802V103.852H80.8529C80.3794 105.244 79.5508 106.333 78.3671 107.119C77.1834 107.896 75.7771 108.284 74.1483 108.284C72.6237 108.284 71.2885 107.934 70.1427 107.233C69.0063 106.532 68.1209 105.566 67.4864 104.335C66.8614 103.104 66.5442 101.693 66.5347 100.102V86.1818H74.3756V98.4545C74.3851 99.5341 74.6597 100.382 75.1995 100.997C75.7487 101.613 76.5158 101.92 77.5006 101.92C78.154 101.92 78.7175 101.783 79.191 101.509C79.6739 101.224 80.0432 100.827 80.2989 100.315C80.5641 99.7945 80.6919 99.1742 80.6824 98.4545ZM109.534 93.2841H102.319C102.281 92.839 102.124 92.4555 101.85 92.1335C101.575 91.8116 101.22 91.5653 100.784 91.3949C100.358 91.215 99.8848 91.125 99.364 91.125C98.6917 91.125 98.114 91.2481 97.631 91.4943C97.1481 91.7405 96.9114 92.0909 96.9208 92.5455C96.9114 92.8674 97.0487 93.1657 97.3328 93.4403C97.6263 93.715 98.1898 93.928 99.0231 94.0795L103.455 94.875C105.69 95.2822 107.352 95.9687 108.441 96.9347C109.539 97.8911 110.093 99.1742 110.103 100.784C110.093 102.337 109.629 103.687 108.711 104.832C107.802 105.969 106.556 106.849 104.975 107.474C103.403 108.09 101.608 108.398 99.5913 108.398C96.2579 108.398 93.649 107.716 91.7646 106.352C89.8896 104.989 88.8432 103.189 88.6254 100.955H96.4095C96.5136 101.646 96.8545 102.181 97.4322 102.56C98.0193 102.929 98.7579 103.114 99.6481 103.114C100.368 103.114 100.96 102.991 101.424 102.744C101.897 102.498 102.139 102.148 102.148 101.693C102.139 101.277 101.93 100.945 101.523 100.699C101.125 100.453 100.5 100.254 99.6481 100.102L95.7845 99.4205C93.5591 99.0322 91.8924 98.2936 90.7845 97.2045C89.6765 96.1155 89.1273 94.714 89.1367 93C89.1273 91.4848 89.525 90.2017 90.3299 89.1506C91.1443 88.09 92.3043 87.285 93.81 86.7358C95.3252 86.1771 97.1197 85.8977 99.1935 85.8977C102.347 85.8977 104.833 86.5511 106.651 87.858C108.479 89.1648 109.44 90.9735 109.534 93.2841ZM117.63 108H109.107L118.71 78.9091H129.505L139.107 108H130.585L124.221 86.9205H123.994L117.63 108ZM116.039 96.5227H132.062V102.432H116.039V96.5227ZM146.944 78.9091V108H139.103V78.9091H146.944ZM158.473 108.398C156.144 108.398 154.136 107.953 152.451 107.062C150.774 106.163 149.482 104.875 148.573 103.199C147.673 101.513 147.223 99.4962 147.223 97.1477C147.223 94.8939 147.678 92.9242 148.587 91.2386C149.496 89.553 150.779 88.2415 152.436 87.304C154.094 86.3665 156.049 85.8977 158.303 85.8977C159.951 85.8977 161.442 86.1534 162.777 86.6648C164.113 87.1761 165.254 87.9195 166.201 88.8949C167.148 89.8608 167.877 91.035 168.388 92.4176C168.899 93.8002 169.155 95.358 169.155 97.0909V98.9091H149.666V94.5909H161.939C161.93 93.9659 161.769 93.4167 161.456 92.9432C161.153 92.4602 160.741 92.0862 160.22 91.821C159.709 91.5464 159.127 91.4091 158.473 91.4091C157.839 91.4091 157.256 91.5464 156.726 91.821C156.196 92.0862 155.77 92.4555 155.448 92.929C155.135 93.4025 154.97 93.9564 154.951 94.5909V99.25C154.951 99.9508 155.097 100.576 155.391 101.125C155.684 101.674 156.106 102.105 156.655 102.418C157.204 102.73 157.867 102.886 158.644 102.886C159.184 102.886 159.676 102.811 160.121 102.659C160.576 102.508 160.964 102.29 161.286 102.006C161.608 101.712 161.845 101.362 161.996 100.955H169.155C168.909 102.47 168.327 103.786 167.408 104.903C166.489 106.011 165.273 106.873 163.757 107.489C162.252 108.095 160.49 108.398 158.473 108.398ZM169.435 108V86.1818H177.048V90.3295H177.276C177.673 88.7955 178.303 87.6733 179.165 86.9631C180.036 86.2528 181.054 85.8977 182.219 85.8977C182.56 85.8977 182.896 85.9261 183.227 85.983C183.568 86.0303 183.895 86.1013 184.207 86.196V92.8864C183.819 92.7538 183.341 92.6544 182.773 92.5881C182.205 92.5218 181.717 92.4886 181.31 92.4886C180.543 92.4886 179.851 92.6638 179.236 93.0142C178.63 93.3551 178.152 93.8381 177.801 94.4631C177.451 95.0786 177.276 95.803 177.276 96.6364V108H169.435ZM197.768 86.1818V91.8636H183.393V86.1818H197.768ZM186.177 80.9545H194.018V100.983C194.018 101.286 194.07 101.542 194.175 101.75C194.279 101.949 194.44 102.1 194.657 102.205C194.875 102.299 195.155 102.347 195.496 102.347C195.732 102.347 196.007 102.318 196.319 102.261C196.641 102.205 196.878 102.157 197.03 102.119L198.166 107.631C197.816 107.735 197.314 107.863 196.66 108.014C196.016 108.166 195.249 108.265 194.359 108.312C192.56 108.407 191.05 108.223 189.828 107.759C188.606 107.285 187.688 106.542 187.072 105.528C186.457 104.515 186.158 103.246 186.177 101.722V80.9545Z" fill="white"/>
</svg>
